<mxfile host="app.diagrams.net" agent="Mozilla/5.0 (Windows NT 10.0; Win64; x64) AppleWebKit/537.36 (KHTML, like Gecko) Chrome/136.0.0.0 Safari/537.36" version="27.0.9">
  <diagram name="Page-1" id="yjKUEptKyhN-ymDc4MfR">
    <mxGraphModel dx="1895" dy="2162" grid="1" gridSize="10" guides="1" tooltips="1" connect="1" arrows="1" fold="1" page="1" pageScale="1" pageWidth="827" pageHeight="1169" math="0" shadow="0">
      <root>
        <mxCell id="0" />
        <mxCell id="1" parent="0" />
        <mxCell id="zd-B0QqsPqcbFtm1YSPT-1" value="Users" style="shape=table;startSize=25;container=1;collapsible=0;childLayout=tableLayout;fixedRows=1;rowLines=1;fontStyle=1;align=center;resizeLast=1;" vertex="1" parent="1">
          <mxGeometry x="52" y="822" width="226" height="301" as="geometry" />
        </mxCell>
        <mxCell id="zd-B0QqsPqcbFtm1YSPT-2" style="shape=tableRow;horizontal=0;startSize=0;swimlaneHead=0;swimlaneBody=0;fillColor=none;collapsible=0;dropTarget=0;points=[[0,0.5],[1,0.5]];portConstraint=eastwest;top=0;left=0;right=0;bottom=0;fontStyle=1" vertex="1" parent="zd-B0QqsPqcbFtm1YSPT-1">
          <mxGeometry y="25" width="226" height="46" as="geometry" />
        </mxCell>
        <mxCell id="zd-B0QqsPqcbFtm1YSPT-3" value="INT" style="shape=partialRectangle;connectable=0;fillColor=none;top=0;left=0;bottom=0;right=0;align=left;spacingLeft=2;overflow=hidden;fontSize=11;fontStyle=1" vertex="1" parent="zd-B0QqsPqcbFtm1YSPT-2">
          <mxGeometry width="42" height="46" as="geometry">
            <mxRectangle width="42" height="46" as="alternateBounds" />
          </mxGeometry>
        </mxCell>
        <mxCell id="zd-B0QqsPqcbFtm1YSPT-4" value="UserID" style="shape=partialRectangle;connectable=0;fillColor=none;top=0;left=0;bottom=0;right=0;align=left;spacingLeft=2;overflow=hidden;fontSize=11;fontStyle=1" vertex="1" parent="zd-B0QqsPqcbFtm1YSPT-2">
          <mxGeometry x="42" width="136" height="46" as="geometry">
            <mxRectangle width="136" height="46" as="alternateBounds" />
          </mxGeometry>
        </mxCell>
        <mxCell id="zd-B0QqsPqcbFtm1YSPT-5" value="PK" style="shape=partialRectangle;connectable=0;fillColor=none;top=0;left=0;bottom=0;right=0;align=left;spacingLeft=2;overflow=hidden;fontSize=11;fontStyle=1" vertex="1" parent="zd-B0QqsPqcbFtm1YSPT-2">
          <mxGeometry x="178" width="48" height="46" as="geometry">
            <mxRectangle width="48" height="46" as="alternateBounds" />
          </mxGeometry>
        </mxCell>
        <mxCell id="zd-B0QqsPqcbFtm1YSPT-6" style="shape=tableRow;horizontal=0;startSize=0;swimlaneHead=0;swimlaneBody=0;fillColor=none;collapsible=0;dropTarget=0;points=[[0,0.5],[1,0.5]];portConstraint=eastwest;top=0;left=0;right=0;bottom=0;" vertex="1" parent="zd-B0QqsPqcbFtm1YSPT-1">
          <mxGeometry y="71" width="226" height="46" as="geometry" />
        </mxCell>
        <mxCell id="zd-B0QqsPqcbFtm1YSPT-7" value="VARCHAR" style="shape=partialRectangle;connectable=0;fillColor=none;top=0;left=0;bottom=0;right=0;align=left;spacingLeft=2;overflow=hidden;fontSize=11;" vertex="1" parent="zd-B0QqsPqcbFtm1YSPT-6">
          <mxGeometry width="42" height="46" as="geometry">
            <mxRectangle width="42" height="46" as="alternateBounds" />
          </mxGeometry>
        </mxCell>
        <mxCell id="zd-B0QqsPqcbFtm1YSPT-8" value="FullName" style="shape=partialRectangle;connectable=0;fillColor=none;top=0;left=0;bottom=0;right=0;align=left;spacingLeft=2;overflow=hidden;fontSize=11;" vertex="1" parent="zd-B0QqsPqcbFtm1YSPT-6">
          <mxGeometry x="42" width="136" height="46" as="geometry">
            <mxRectangle width="136" height="46" as="alternateBounds" />
          </mxGeometry>
        </mxCell>
        <mxCell id="zd-B0QqsPqcbFtm1YSPT-9" value="" style="shape=partialRectangle;connectable=0;fillColor=none;top=0;left=0;bottom=0;right=0;align=left;spacingLeft=2;overflow=hidden;fontSize=11;" vertex="1" parent="zd-B0QqsPqcbFtm1YSPT-6">
          <mxGeometry x="178" width="48" height="46" as="geometry">
            <mxRectangle width="48" height="46" as="alternateBounds" />
          </mxGeometry>
        </mxCell>
        <mxCell id="zd-B0QqsPqcbFtm1YSPT-10" style="shape=tableRow;horizontal=0;startSize=0;swimlaneHead=0;swimlaneBody=0;fillColor=none;collapsible=0;dropTarget=0;points=[[0,0.5],[1,0.5]];portConstraint=eastwest;top=0;left=0;right=0;bottom=0;" vertex="1" parent="zd-B0QqsPqcbFtm1YSPT-1">
          <mxGeometry y="117" width="226" height="46" as="geometry" />
        </mxCell>
        <mxCell id="zd-B0QqsPqcbFtm1YSPT-11" value="VARCHAR" style="shape=partialRectangle;connectable=0;fillColor=none;top=0;left=0;bottom=0;right=0;align=left;spacingLeft=2;overflow=hidden;fontSize=11;" vertex="1" parent="zd-B0QqsPqcbFtm1YSPT-10">
          <mxGeometry width="42" height="46" as="geometry">
            <mxRectangle width="42" height="46" as="alternateBounds" />
          </mxGeometry>
        </mxCell>
        <mxCell id="zd-B0QqsPqcbFtm1YSPT-12" value="Email" style="shape=partialRectangle;connectable=0;fillColor=none;top=0;left=0;bottom=0;right=0;align=left;spacingLeft=2;overflow=hidden;fontSize=11;" vertex="1" parent="zd-B0QqsPqcbFtm1YSPT-10">
          <mxGeometry x="42" width="136" height="46" as="geometry">
            <mxRectangle width="136" height="46" as="alternateBounds" />
          </mxGeometry>
        </mxCell>
        <mxCell id="zd-B0QqsPqcbFtm1YSPT-13" value="" style="shape=partialRectangle;connectable=0;fillColor=none;top=0;left=0;bottom=0;right=0;align=left;spacingLeft=2;overflow=hidden;fontSize=11;" vertex="1" parent="zd-B0QqsPqcbFtm1YSPT-10">
          <mxGeometry x="178" width="48" height="46" as="geometry">
            <mxRectangle width="48" height="46" as="alternateBounds" />
          </mxGeometry>
        </mxCell>
        <mxCell id="zd-B0QqsPqcbFtm1YSPT-14" style="shape=tableRow;horizontal=0;startSize=0;swimlaneHead=0;swimlaneBody=0;fillColor=none;collapsible=0;dropTarget=0;points=[[0,0.5],[1,0.5]];portConstraint=eastwest;top=0;left=0;right=0;bottom=0;" vertex="1" parent="zd-B0QqsPqcbFtm1YSPT-1">
          <mxGeometry y="163" width="226" height="46" as="geometry" />
        </mxCell>
        <mxCell id="zd-B0QqsPqcbFtm1YSPT-15" value="VARCHAR" style="shape=partialRectangle;connectable=0;fillColor=none;top=0;left=0;bottom=0;right=0;align=left;spacingLeft=2;overflow=hidden;fontSize=11;" vertex="1" parent="zd-B0QqsPqcbFtm1YSPT-14">
          <mxGeometry width="42" height="46" as="geometry">
            <mxRectangle width="42" height="46" as="alternateBounds" />
          </mxGeometry>
        </mxCell>
        <mxCell id="zd-B0QqsPqcbFtm1YSPT-16" value="Password" style="shape=partialRectangle;connectable=0;fillColor=none;top=0;left=0;bottom=0;right=0;align=left;spacingLeft=2;overflow=hidden;fontSize=11;" vertex="1" parent="zd-B0QqsPqcbFtm1YSPT-14">
          <mxGeometry x="42" width="136" height="46" as="geometry">
            <mxRectangle width="136" height="46" as="alternateBounds" />
          </mxGeometry>
        </mxCell>
        <mxCell id="zd-B0QqsPqcbFtm1YSPT-17" value="" style="shape=partialRectangle;connectable=0;fillColor=none;top=0;left=0;bottom=0;right=0;align=left;spacingLeft=2;overflow=hidden;fontSize=11;" vertex="1" parent="zd-B0QqsPqcbFtm1YSPT-14">
          <mxGeometry x="178" width="48" height="46" as="geometry">
            <mxRectangle width="48" height="46" as="alternateBounds" />
          </mxGeometry>
        </mxCell>
        <mxCell id="zd-B0QqsPqcbFtm1YSPT-18" style="shape=tableRow;horizontal=0;startSize=0;swimlaneHead=0;swimlaneBody=0;fillColor=none;collapsible=0;dropTarget=0;points=[[0,0.5],[1,0.5]];portConstraint=eastwest;top=0;left=0;right=0;bottom=0;" vertex="1" parent="zd-B0QqsPqcbFtm1YSPT-1">
          <mxGeometry y="209" width="226" height="46" as="geometry" />
        </mxCell>
        <mxCell id="zd-B0QqsPqcbFtm1YSPT-19" value="VARCHAR" style="shape=partialRectangle;connectable=0;fillColor=none;top=0;left=0;bottom=0;right=0;align=left;spacingLeft=2;overflow=hidden;fontSize=11;" vertex="1" parent="zd-B0QqsPqcbFtm1YSPT-18">
          <mxGeometry width="42" height="46" as="geometry">
            <mxRectangle width="42" height="46" as="alternateBounds" />
          </mxGeometry>
        </mxCell>
        <mxCell id="zd-B0QqsPqcbFtm1YSPT-20" value="Salt" style="shape=partialRectangle;connectable=0;fillColor=none;top=0;left=0;bottom=0;right=0;align=left;spacingLeft=2;overflow=hidden;fontSize=11;" vertex="1" parent="zd-B0QqsPqcbFtm1YSPT-18">
          <mxGeometry x="42" width="136" height="46" as="geometry">
            <mxRectangle width="136" height="46" as="alternateBounds" />
          </mxGeometry>
        </mxCell>
        <mxCell id="zd-B0QqsPqcbFtm1YSPT-21" value="" style="shape=partialRectangle;connectable=0;fillColor=none;top=0;left=0;bottom=0;right=0;align=left;spacingLeft=2;overflow=hidden;fontSize=11;" vertex="1" parent="zd-B0QqsPqcbFtm1YSPT-18">
          <mxGeometry x="178" width="48" height="46" as="geometry">
            <mxRectangle width="48" height="46" as="alternateBounds" />
          </mxGeometry>
        </mxCell>
        <mxCell id="zd-B0QqsPqcbFtm1YSPT-22" style="shape=tableRow;horizontal=0;startSize=0;swimlaneHead=0;swimlaneBody=0;fillColor=none;collapsible=0;dropTarget=0;points=[[0,0.5],[1,0.5]];portConstraint=eastwest;top=0;left=0;right=0;bottom=0;" vertex="1" parent="zd-B0QqsPqcbFtm1YSPT-1">
          <mxGeometry y="255" width="226" height="46" as="geometry" />
        </mxCell>
        <mxCell id="zd-B0QqsPqcbFtm1YSPT-23" value="VARCHAR" style="shape=partialRectangle;connectable=0;fillColor=none;top=0;left=0;bottom=0;right=0;align=left;spacingLeft=2;overflow=hidden;fontSize=11;" vertex="1" parent="zd-B0QqsPqcbFtm1YSPT-22">
          <mxGeometry width="42" height="46" as="geometry">
            <mxRectangle width="42" height="46" as="alternateBounds" />
          </mxGeometry>
        </mxCell>
        <mxCell id="zd-B0QqsPqcbFtm1YSPT-24" value="Role" style="shape=partialRectangle;connectable=0;fillColor=none;top=0;left=0;bottom=0;right=0;align=left;spacingLeft=2;overflow=hidden;fontSize=11;" vertex="1" parent="zd-B0QqsPqcbFtm1YSPT-22">
          <mxGeometry x="42" width="136" height="46" as="geometry">
            <mxRectangle width="136" height="46" as="alternateBounds" />
          </mxGeometry>
        </mxCell>
        <mxCell id="zd-B0QqsPqcbFtm1YSPT-25" value="" style="shape=partialRectangle;connectable=0;fillColor=none;top=0;left=0;bottom=0;right=0;align=left;spacingLeft=2;overflow=hidden;fontSize=11;" vertex="1" parent="zd-B0QqsPqcbFtm1YSPT-22">
          <mxGeometry x="178" width="48" height="46" as="geometry">
            <mxRectangle width="48" height="46" as="alternateBounds" />
          </mxGeometry>
        </mxCell>
        <mxCell id="zd-B0QqsPqcbFtm1YSPT-29" value="Services" style="shape=table;startSize=25;container=1;collapsible=0;childLayout=tableLayout;fixedRows=1;rowLines=1;fontStyle=1;align=center;resizeLast=1;" vertex="1" parent="1">
          <mxGeometry x="687" y="206" width="302" height="513" as="geometry" />
        </mxCell>
        <mxCell id="zd-B0QqsPqcbFtm1YSPT-30" style="shape=tableRow;horizontal=0;startSize=0;swimlaneHead=0;swimlaneBody=0;fillColor=none;collapsible=0;dropTarget=0;points=[[0,0.5],[1,0.5]];portConstraint=eastwest;top=0;left=0;right=0;bottom=0;" vertex="1" parent="zd-B0QqsPqcbFtm1YSPT-29">
          <mxGeometry y="25" width="302" height="44" as="geometry" />
        </mxCell>
        <mxCell id="zd-B0QqsPqcbFtm1YSPT-31" value="INT" style="shape=partialRectangle;connectable=0;fillColor=none;top=0;left=0;bottom=0;right=0;align=left;spacingLeft=2;overflow=hidden;fontSize=11;fontStyle=1" vertex="1" parent="zd-B0QqsPqcbFtm1YSPT-30">
          <mxGeometry width="73" height="44" as="geometry">
            <mxRectangle width="73" height="44" as="alternateBounds" />
          </mxGeometry>
        </mxCell>
        <mxCell id="zd-B0QqsPqcbFtm1YSPT-32" value="ServiceID" style="shape=partialRectangle;connectable=0;fillColor=none;top=0;left=0;bottom=0;right=0;align=left;spacingLeft=2;overflow=hidden;fontSize=11;fontStyle=1" vertex="1" parent="zd-B0QqsPqcbFtm1YSPT-30">
          <mxGeometry x="73" width="160" height="44" as="geometry">
            <mxRectangle width="160" height="44" as="alternateBounds" />
          </mxGeometry>
        </mxCell>
        <mxCell id="zd-B0QqsPqcbFtm1YSPT-33" value="PK" style="shape=partialRectangle;connectable=0;fillColor=none;top=0;left=0;bottom=0;right=0;align=left;spacingLeft=2;overflow=hidden;fontSize=11;fontStyle=1" vertex="1" parent="zd-B0QqsPqcbFtm1YSPT-30">
          <mxGeometry x="233" width="69" height="44" as="geometry">
            <mxRectangle width="69" height="44" as="alternateBounds" />
          </mxGeometry>
        </mxCell>
        <mxCell id="zd-B0QqsPqcbFtm1YSPT-34" style="shape=tableRow;horizontal=0;startSize=0;swimlaneHead=0;swimlaneBody=0;fillColor=none;collapsible=0;dropTarget=0;points=[[0,0.5],[1,0.5]];portConstraint=eastwest;top=0;left=0;right=0;bottom=0;" vertex="1" parent="zd-B0QqsPqcbFtm1YSPT-29">
          <mxGeometry y="69" width="302" height="44" as="geometry" />
        </mxCell>
        <mxCell id="zd-B0QqsPqcbFtm1YSPT-35" value="NVARCHAR" style="shape=partialRectangle;connectable=0;fillColor=none;top=0;left=0;bottom=0;right=0;align=left;spacingLeft=2;overflow=hidden;fontSize=11;" vertex="1" parent="zd-B0QqsPqcbFtm1YSPT-34">
          <mxGeometry width="73" height="44" as="geometry">
            <mxRectangle width="73" height="44" as="alternateBounds" />
          </mxGeometry>
        </mxCell>
        <mxCell id="zd-B0QqsPqcbFtm1YSPT-36" value="ServiceTitle" style="shape=partialRectangle;connectable=0;fillColor=none;top=0;left=0;bottom=0;right=0;align=left;spacingLeft=2;overflow=hidden;fontSize=11;" vertex="1" parent="zd-B0QqsPqcbFtm1YSPT-34">
          <mxGeometry x="73" width="160" height="44" as="geometry">
            <mxRectangle width="160" height="44" as="alternateBounds" />
          </mxGeometry>
        </mxCell>
        <mxCell id="zd-B0QqsPqcbFtm1YSPT-37" value="" style="shape=partialRectangle;connectable=0;fillColor=none;top=0;left=0;bottom=0;right=0;align=left;spacingLeft=2;overflow=hidden;fontSize=11;" vertex="1" parent="zd-B0QqsPqcbFtm1YSPT-34">
          <mxGeometry x="233" width="69" height="44" as="geometry">
            <mxRectangle width="69" height="44" as="alternateBounds" />
          </mxGeometry>
        </mxCell>
        <mxCell id="zd-B0QqsPqcbFtm1YSPT-38" style="shape=tableRow;horizontal=0;startSize=0;swimlaneHead=0;swimlaneBody=0;fillColor=none;collapsible=0;dropTarget=0;points=[[0,0.5],[1,0.5]];portConstraint=eastwest;top=0;left=0;right=0;bottom=0;" vertex="1" parent="zd-B0QqsPqcbFtm1YSPT-29">
          <mxGeometry y="113" width="302" height="44" as="geometry" />
        </mxCell>
        <mxCell id="zd-B0QqsPqcbFtm1YSPT-39" value="NVARCHAR" style="shape=partialRectangle;connectable=0;fillColor=none;top=0;left=0;bottom=0;right=0;align=left;spacingLeft=2;overflow=hidden;fontSize=11;" vertex="1" parent="zd-B0QqsPqcbFtm1YSPT-38">
          <mxGeometry width="73" height="44" as="geometry">
            <mxRectangle width="73" height="44" as="alternateBounds" />
          </mxGeometry>
        </mxCell>
        <mxCell id="zd-B0QqsPqcbFtm1YSPT-40" value="ServiceCategory" style="shape=partialRectangle;connectable=0;fillColor=none;top=0;left=0;bottom=0;right=0;align=left;spacingLeft=2;overflow=hidden;fontSize=11;" vertex="1" parent="zd-B0QqsPqcbFtm1YSPT-38">
          <mxGeometry x="73" width="160" height="44" as="geometry">
            <mxRectangle width="160" height="44" as="alternateBounds" />
          </mxGeometry>
        </mxCell>
        <mxCell id="zd-B0QqsPqcbFtm1YSPT-41" value="" style="shape=partialRectangle;connectable=0;fillColor=none;top=0;left=0;bottom=0;right=0;align=left;spacingLeft=2;overflow=hidden;fontSize=11;" vertex="1" parent="zd-B0QqsPqcbFtm1YSPT-38">
          <mxGeometry x="233" width="69" height="44" as="geometry">
            <mxRectangle width="69" height="44" as="alternateBounds" />
          </mxGeometry>
        </mxCell>
        <mxCell id="zd-B0QqsPqcbFtm1YSPT-42" style="shape=tableRow;horizontal=0;startSize=0;swimlaneHead=0;swimlaneBody=0;fillColor=none;collapsible=0;dropTarget=0;points=[[0,0.5],[1,0.5]];portConstraint=eastwest;top=0;left=0;right=0;bottom=0;" vertex="1" parent="zd-B0QqsPqcbFtm1YSPT-29">
          <mxGeometry y="157" width="302" height="44" as="geometry" />
        </mxCell>
        <mxCell id="zd-B0QqsPqcbFtm1YSPT-43" value="NVARCHAR" style="shape=partialRectangle;connectable=0;fillColor=none;top=0;left=0;bottom=0;right=0;align=left;spacingLeft=2;overflow=hidden;fontSize=11;" vertex="1" parent="zd-B0QqsPqcbFtm1YSPT-42">
          <mxGeometry width="73" height="44" as="geometry">
            <mxRectangle width="73" height="44" as="alternateBounds" />
          </mxGeometry>
        </mxCell>
        <mxCell id="zd-B0QqsPqcbFtm1YSPT-44" value="Description" style="shape=partialRectangle;connectable=0;fillColor=none;top=0;left=0;bottom=0;right=0;align=left;spacingLeft=2;overflow=hidden;fontSize=11;" vertex="1" parent="zd-B0QqsPqcbFtm1YSPT-42">
          <mxGeometry x="73" width="160" height="44" as="geometry">
            <mxRectangle width="160" height="44" as="alternateBounds" />
          </mxGeometry>
        </mxCell>
        <mxCell id="zd-B0QqsPqcbFtm1YSPT-45" value="" style="shape=partialRectangle;connectable=0;fillColor=none;top=0;left=0;bottom=0;right=0;align=left;spacingLeft=2;overflow=hidden;fontSize=11;" vertex="1" parent="zd-B0QqsPqcbFtm1YSPT-42">
          <mxGeometry x="233" width="69" height="44" as="geometry">
            <mxRectangle width="69" height="44" as="alternateBounds" />
          </mxGeometry>
        </mxCell>
        <mxCell id="zd-B0QqsPqcbFtm1YSPT-46" style="shape=tableRow;horizontal=0;startSize=0;swimlaneHead=0;swimlaneBody=0;fillColor=none;collapsible=0;dropTarget=0;points=[[0,0.5],[1,0.5]];portConstraint=eastwest;top=0;left=0;right=0;bottom=0;" vertex="1" parent="zd-B0QqsPqcbFtm1YSPT-29">
          <mxGeometry y="201" width="302" height="44" as="geometry" />
        </mxCell>
        <mxCell id="zd-B0QqsPqcbFtm1YSPT-47" value="DECIMAL" style="shape=partialRectangle;connectable=0;fillColor=none;top=0;left=0;bottom=0;right=0;align=left;spacingLeft=2;overflow=hidden;fontSize=11;" vertex="1" parent="zd-B0QqsPqcbFtm1YSPT-46">
          <mxGeometry width="73" height="44" as="geometry">
            <mxRectangle width="73" height="44" as="alternateBounds" />
          </mxGeometry>
        </mxCell>
        <mxCell id="zd-B0QqsPqcbFtm1YSPT-48" value="Price" style="shape=partialRectangle;connectable=0;fillColor=none;top=0;left=0;bottom=0;right=0;align=left;spacingLeft=2;overflow=hidden;fontSize=11;" vertex="1" parent="zd-B0QqsPqcbFtm1YSPT-46">
          <mxGeometry x="73" width="160" height="44" as="geometry">
            <mxRectangle width="160" height="44" as="alternateBounds" />
          </mxGeometry>
        </mxCell>
        <mxCell id="zd-B0QqsPqcbFtm1YSPT-49" value="" style="shape=partialRectangle;connectable=0;fillColor=none;top=0;left=0;bottom=0;right=0;align=left;spacingLeft=2;overflow=hidden;fontSize=11;" vertex="1" parent="zd-B0QqsPqcbFtm1YSPT-46">
          <mxGeometry x="233" width="69" height="44" as="geometry">
            <mxRectangle width="69" height="44" as="alternateBounds" />
          </mxGeometry>
        </mxCell>
        <mxCell id="zd-B0QqsPqcbFtm1YSPT-50" style="shape=tableRow;horizontal=0;startSize=0;swimlaneHead=0;swimlaneBody=0;fillColor=none;collapsible=0;dropTarget=0;points=[[0,0.5],[1,0.5]];portConstraint=eastwest;top=0;left=0;right=0;bottom=0;" vertex="1" parent="zd-B0QqsPqcbFtm1YSPT-29">
          <mxGeometry y="245" width="302" height="44" as="geometry" />
        </mxCell>
        <mxCell id="zd-B0QqsPqcbFtm1YSPT-51" value="BIT" style="shape=partialRectangle;connectable=0;fillColor=none;top=0;left=0;bottom=0;right=0;align=left;spacingLeft=2;overflow=hidden;fontSize=11;" vertex="1" parent="zd-B0QqsPqcbFtm1YSPT-50">
          <mxGeometry width="73" height="44" as="geometry">
            <mxRectangle width="73" height="44" as="alternateBounds" />
          </mxGeometry>
        </mxCell>
        <mxCell id="zd-B0QqsPqcbFtm1YSPT-52" value="IsAvailable" style="shape=partialRectangle;connectable=0;fillColor=none;top=0;left=0;bottom=0;right=0;align=left;spacingLeft=2;overflow=hidden;fontSize=11;" vertex="1" parent="zd-B0QqsPqcbFtm1YSPT-50">
          <mxGeometry x="73" width="160" height="44" as="geometry">
            <mxRectangle width="160" height="44" as="alternateBounds" />
          </mxGeometry>
        </mxCell>
        <mxCell id="zd-B0QqsPqcbFtm1YSPT-53" value="" style="shape=partialRectangle;connectable=0;fillColor=none;top=0;left=0;bottom=0;right=0;align=left;spacingLeft=2;overflow=hidden;fontSize=11;" vertex="1" parent="zd-B0QqsPqcbFtm1YSPT-50">
          <mxGeometry x="233" width="69" height="44" as="geometry">
            <mxRectangle width="69" height="44" as="alternateBounds" />
          </mxGeometry>
        </mxCell>
        <mxCell id="zd-B0QqsPqcbFtm1YSPT-54" style="shape=tableRow;horizontal=0;startSize=0;swimlaneHead=0;swimlaneBody=0;fillColor=none;collapsible=0;dropTarget=0;points=[[0,0.5],[1,0.5]];portConstraint=eastwest;top=0;left=0;right=0;bottom=0;" vertex="1" parent="zd-B0QqsPqcbFtm1YSPT-29">
          <mxGeometry y="289" width="302" height="44" as="geometry" />
        </mxCell>
        <mxCell id="zd-B0QqsPqcbFtm1YSPT-55" value="NVARCHAR" style="shape=partialRectangle;connectable=0;fillColor=none;top=0;left=0;bottom=0;right=0;align=left;spacingLeft=2;overflow=hidden;fontSize=11;" vertex="1" parent="zd-B0QqsPqcbFtm1YSPT-54">
          <mxGeometry width="73" height="44" as="geometry">
            <mxRectangle width="73" height="44" as="alternateBounds" />
          </mxGeometry>
        </mxCell>
        <mxCell id="zd-B0QqsPqcbFtm1YSPT-56" value="EstimatedDuration" style="shape=partialRectangle;connectable=0;fillColor=none;top=0;left=0;bottom=0;right=0;align=left;spacingLeft=2;overflow=hidden;fontSize=11;" vertex="1" parent="zd-B0QqsPqcbFtm1YSPT-54">
          <mxGeometry x="73" width="160" height="44" as="geometry">
            <mxRectangle width="160" height="44" as="alternateBounds" />
          </mxGeometry>
        </mxCell>
        <mxCell id="zd-B0QqsPqcbFtm1YSPT-57" value="" style="shape=partialRectangle;connectable=0;fillColor=none;top=0;left=0;bottom=0;right=0;align=left;spacingLeft=2;overflow=hidden;fontSize=11;" vertex="1" parent="zd-B0QqsPqcbFtm1YSPT-54">
          <mxGeometry x="233" width="69" height="44" as="geometry">
            <mxRectangle width="69" height="44" as="alternateBounds" />
          </mxGeometry>
        </mxCell>
        <mxCell id="zd-B0QqsPqcbFtm1YSPT-58" style="shape=tableRow;horizontal=0;startSize=0;swimlaneHead=0;swimlaneBody=0;fillColor=none;collapsible=0;dropTarget=0;points=[[0,0.5],[1,0.5]];portConstraint=eastwest;top=0;left=0;right=0;bottom=0;" vertex="1" parent="zd-B0QqsPqcbFtm1YSPT-29">
          <mxGeometry y="333" width="302" height="44" as="geometry" />
        </mxCell>
        <mxCell id="zd-B0QqsPqcbFtm1YSPT-59" value="DATETIME" style="shape=partialRectangle;connectable=0;fillColor=none;top=0;left=0;bottom=0;right=0;align=left;spacingLeft=2;overflow=hidden;fontSize=11;" vertex="1" parent="zd-B0QqsPqcbFtm1YSPT-58">
          <mxGeometry width="73" height="44" as="geometry">
            <mxRectangle width="73" height="44" as="alternateBounds" />
          </mxGeometry>
        </mxCell>
        <mxCell id="zd-B0QqsPqcbFtm1YSPT-60" value="CreatedDate" style="shape=partialRectangle;connectable=0;fillColor=none;top=0;left=0;bottom=0;right=0;align=left;spacingLeft=2;overflow=hidden;fontSize=11;" vertex="1" parent="zd-B0QqsPqcbFtm1YSPT-58">
          <mxGeometry x="73" width="160" height="44" as="geometry">
            <mxRectangle width="160" height="44" as="alternateBounds" />
          </mxGeometry>
        </mxCell>
        <mxCell id="zd-B0QqsPqcbFtm1YSPT-61" value="" style="shape=partialRectangle;connectable=0;fillColor=none;top=0;left=0;bottom=0;right=0;align=left;spacingLeft=2;overflow=hidden;fontSize=11;" vertex="1" parent="zd-B0QqsPqcbFtm1YSPT-58">
          <mxGeometry x="233" width="69" height="44" as="geometry">
            <mxRectangle width="69" height="44" as="alternateBounds" />
          </mxGeometry>
        </mxCell>
        <mxCell id="zd-B0QqsPqcbFtm1YSPT-62" style="shape=tableRow;horizontal=0;startSize=0;swimlaneHead=0;swimlaneBody=0;fillColor=none;collapsible=0;dropTarget=0;points=[[0,0.5],[1,0.5]];portConstraint=eastwest;top=0;left=0;right=0;bottom=0;" vertex="1" parent="zd-B0QqsPqcbFtm1YSPT-29">
          <mxGeometry y="377" width="302" height="44" as="geometry" />
        </mxCell>
        <mxCell id="zd-B0QqsPqcbFtm1YSPT-63" value="DATETIME" style="shape=partialRectangle;connectable=0;fillColor=none;top=0;left=0;bottom=0;right=0;align=left;spacingLeft=2;overflow=hidden;fontSize=11;" vertex="1" parent="zd-B0QqsPqcbFtm1YSPT-62">
          <mxGeometry width="73" height="44" as="geometry">
            <mxRectangle width="73" height="44" as="alternateBounds" />
          </mxGeometry>
        </mxCell>
        <mxCell id="zd-B0QqsPqcbFtm1YSPT-64" value="LastModified" style="shape=partialRectangle;connectable=0;fillColor=none;top=0;left=0;bottom=0;right=0;align=left;spacingLeft=2;overflow=hidden;fontSize=11;" vertex="1" parent="zd-B0QqsPqcbFtm1YSPT-62">
          <mxGeometry x="73" width="160" height="44" as="geometry">
            <mxRectangle width="160" height="44" as="alternateBounds" />
          </mxGeometry>
        </mxCell>
        <mxCell id="zd-B0QqsPqcbFtm1YSPT-65" value="" style="shape=partialRectangle;connectable=0;fillColor=none;top=0;left=0;bottom=0;right=0;align=left;spacingLeft=2;overflow=hidden;fontSize=11;" vertex="1" parent="zd-B0QqsPqcbFtm1YSPT-62">
          <mxGeometry x="233" width="69" height="44" as="geometry">
            <mxRectangle width="69" height="44" as="alternateBounds" />
          </mxGeometry>
        </mxCell>
        <mxCell id="zd-B0QqsPqcbFtm1YSPT-66" style="shape=tableRow;horizontal=0;startSize=0;swimlaneHead=0;swimlaneBody=0;fillColor=none;collapsible=0;dropTarget=0;points=[[0,0.5],[1,0.5]];portConstraint=eastwest;top=0;left=0;right=0;bottom=0;" vertex="1" parent="zd-B0QqsPqcbFtm1YSPT-29">
          <mxGeometry y="421" width="302" height="44" as="geometry" />
        </mxCell>
        <mxCell id="zd-B0QqsPqcbFtm1YSPT-67" value="INT" style="shape=partialRectangle;connectable=0;fillColor=none;top=0;left=0;bottom=0;right=0;align=left;spacingLeft=2;overflow=hidden;fontSize=11;fontStyle=5" vertex="1" parent="zd-B0QqsPqcbFtm1YSPT-66">
          <mxGeometry width="73" height="44" as="geometry">
            <mxRectangle width="73" height="44" as="alternateBounds" />
          </mxGeometry>
        </mxCell>
        <mxCell id="zd-B0QqsPqcbFtm1YSPT-68" value="UserID" style="shape=partialRectangle;connectable=0;fillColor=none;top=0;left=0;bottom=0;right=0;align=left;spacingLeft=2;overflow=hidden;fontSize=11;fontStyle=5" vertex="1" parent="zd-B0QqsPqcbFtm1YSPT-66">
          <mxGeometry x="73" width="160" height="44" as="geometry">
            <mxRectangle width="160" height="44" as="alternateBounds" />
          </mxGeometry>
        </mxCell>
        <mxCell id="zd-B0QqsPqcbFtm1YSPT-69" value="FK" style="shape=partialRectangle;connectable=0;fillColor=none;top=0;left=0;bottom=0;right=0;align=left;spacingLeft=2;overflow=hidden;fontSize=11;fontStyle=1" vertex="1" parent="zd-B0QqsPqcbFtm1YSPT-66">
          <mxGeometry x="233" width="69" height="44" as="geometry">
            <mxRectangle width="69" height="44" as="alternateBounds" />
          </mxGeometry>
        </mxCell>
        <mxCell id="zd-B0QqsPqcbFtm1YSPT-70" style="shape=tableRow;horizontal=0;startSize=0;swimlaneHead=0;swimlaneBody=0;fillColor=none;collapsible=0;dropTarget=0;points=[[0,0.5],[1,0.5]];portConstraint=eastwest;top=0;left=0;right=0;bottom=0;" vertex="1" parent="zd-B0QqsPqcbFtm1YSPT-29">
          <mxGeometry y="465" width="302" height="44" as="geometry" />
        </mxCell>
        <mxCell id="zd-B0QqsPqcbFtm1YSPT-71" value="BIT" style="shape=partialRectangle;connectable=0;fillColor=none;top=0;left=0;bottom=0;right=0;align=left;spacingLeft=2;overflow=hidden;fontSize=11;" vertex="1" parent="zd-B0QqsPqcbFtm1YSPT-70">
          <mxGeometry width="73" height="44" as="geometry">
            <mxRectangle width="73" height="44" as="alternateBounds" />
          </mxGeometry>
        </mxCell>
        <mxCell id="zd-B0QqsPqcbFtm1YSPT-72" value="Publish" style="shape=partialRectangle;connectable=0;fillColor=none;top=0;left=0;bottom=0;right=0;align=left;spacingLeft=2;overflow=hidden;fontSize=11;" vertex="1" parent="zd-B0QqsPqcbFtm1YSPT-70">
          <mxGeometry x="73" width="160" height="44" as="geometry">
            <mxRectangle width="160" height="44" as="alternateBounds" />
          </mxGeometry>
        </mxCell>
        <mxCell id="zd-B0QqsPqcbFtm1YSPT-73" value="" style="shape=partialRectangle;connectable=0;fillColor=none;top=0;left=0;bottom=0;right=0;align=left;spacingLeft=2;overflow=hidden;fontSize=11;" vertex="1" parent="zd-B0QqsPqcbFtm1YSPT-70">
          <mxGeometry x="233" width="69" height="44" as="geometry">
            <mxRectangle width="69" height="44" as="alternateBounds" />
          </mxGeometry>
        </mxCell>
        <mxCell id="zd-B0QqsPqcbFtm1YSPT-74" value="Booking" style="shape=table;startSize=25;container=1;collapsible=0;childLayout=tableLayout;fixedRows=1;rowLines=1;fontStyle=1;align=center;resizeLast=1;" vertex="1" parent="1">
          <mxGeometry x="421" y="843" width="251" height="257" as="geometry" />
        </mxCell>
        <mxCell id="zd-B0QqsPqcbFtm1YSPT-75" style="shape=tableRow;horizontal=0;startSize=0;swimlaneHead=0;swimlaneBody=0;fillColor=none;collapsible=0;dropTarget=0;points=[[0,0.5],[1,0.5]];portConstraint=eastwest;top=0;left=0;right=0;bottom=0;" vertex="1" parent="zd-B0QqsPqcbFtm1YSPT-74">
          <mxGeometry y="25" width="251" height="46" as="geometry" />
        </mxCell>
        <mxCell id="zd-B0QqsPqcbFtm1YSPT-76" value="INT" style="shape=partialRectangle;connectable=0;fillColor=none;top=0;left=0;bottom=0;right=0;align=left;spacingLeft=2;overflow=hidden;fontSize=11;fontStyle=1" vertex="1" parent="zd-B0QqsPqcbFtm1YSPT-75">
          <mxGeometry width="48" height="46" as="geometry">
            <mxRectangle width="48" height="46" as="alternateBounds" />
          </mxGeometry>
        </mxCell>
        <mxCell id="zd-B0QqsPqcbFtm1YSPT-77" value="BookingID" style="shape=partialRectangle;connectable=0;fillColor=none;top=0;left=0;bottom=0;right=0;align=left;spacingLeft=2;overflow=hidden;fontSize=11;fontStyle=1" vertex="1" parent="zd-B0QqsPqcbFtm1YSPT-75">
          <mxGeometry x="48" width="141" height="46" as="geometry">
            <mxRectangle width="141" height="46" as="alternateBounds" />
          </mxGeometry>
        </mxCell>
        <mxCell id="zd-B0QqsPqcbFtm1YSPT-78" value="PK" style="shape=partialRectangle;connectable=0;fillColor=none;top=0;left=0;bottom=0;right=0;align=left;spacingLeft=2;overflow=hidden;fontSize=11;fontStyle=1" vertex="1" parent="zd-B0QqsPqcbFtm1YSPT-75">
          <mxGeometry x="189" width="62" height="46" as="geometry">
            <mxRectangle width="62" height="46" as="alternateBounds" />
          </mxGeometry>
        </mxCell>
        <mxCell id="zd-B0QqsPqcbFtm1YSPT-79" style="shape=tableRow;horizontal=0;startSize=0;swimlaneHead=0;swimlaneBody=0;fillColor=none;collapsible=0;dropTarget=0;points=[[0,0.5],[1,0.5]];portConstraint=eastwest;top=0;left=0;right=0;bottom=0;" vertex="1" parent="zd-B0QqsPqcbFtm1YSPT-74">
          <mxGeometry y="71" width="251" height="46" as="geometry" />
        </mxCell>
        <mxCell id="zd-B0QqsPqcbFtm1YSPT-80" value="INT" style="shape=partialRectangle;connectable=0;fillColor=none;top=0;left=0;bottom=0;right=0;align=left;spacingLeft=2;overflow=hidden;fontSize=11;fontStyle=1" vertex="1" parent="zd-B0QqsPqcbFtm1YSPT-79">
          <mxGeometry width="48" height="46" as="geometry">
            <mxRectangle width="48" height="46" as="alternateBounds" />
          </mxGeometry>
        </mxCell>
        <mxCell id="zd-B0QqsPqcbFtm1YSPT-81" value="ServiceID" style="shape=partialRectangle;connectable=0;fillColor=none;top=0;left=0;bottom=0;right=0;align=left;spacingLeft=2;overflow=hidden;fontSize=11;fontStyle=5" vertex="1" parent="zd-B0QqsPqcbFtm1YSPT-79">
          <mxGeometry x="48" width="141" height="46" as="geometry">
            <mxRectangle width="141" height="46" as="alternateBounds" />
          </mxGeometry>
        </mxCell>
        <mxCell id="zd-B0QqsPqcbFtm1YSPT-82" value="FK" style="shape=partialRectangle;connectable=0;fillColor=none;top=0;left=0;bottom=0;right=0;align=left;spacingLeft=2;overflow=hidden;fontSize=11;fontStyle=1" vertex="1" parent="zd-B0QqsPqcbFtm1YSPT-79">
          <mxGeometry x="189" width="62" height="46" as="geometry">
            <mxRectangle width="62" height="46" as="alternateBounds" />
          </mxGeometry>
        </mxCell>
        <mxCell id="zd-B0QqsPqcbFtm1YSPT-83" style="shape=tableRow;horizontal=0;startSize=0;swimlaneHead=0;swimlaneBody=0;fillColor=none;collapsible=0;dropTarget=0;points=[[0,0.5],[1,0.5]];portConstraint=eastwest;top=0;left=0;right=0;bottom=0;" vertex="1" parent="zd-B0QqsPqcbFtm1YSPT-74">
          <mxGeometry y="117" width="251" height="46" as="geometry" />
        </mxCell>
        <mxCell id="zd-B0QqsPqcbFtm1YSPT-84" value="INT" style="shape=partialRectangle;connectable=0;fillColor=none;top=0;left=0;bottom=0;right=0;align=left;spacingLeft=2;overflow=hidden;fontSize=11;fontStyle=1" vertex="1" parent="zd-B0QqsPqcbFtm1YSPT-83">
          <mxGeometry width="48" height="46" as="geometry">
            <mxRectangle width="48" height="46" as="alternateBounds" />
          </mxGeometry>
        </mxCell>
        <mxCell id="zd-B0QqsPqcbFtm1YSPT-85" value="CustomerID" style="shape=partialRectangle;connectable=0;fillColor=none;top=0;left=0;bottom=0;right=0;align=left;spacingLeft=2;overflow=hidden;fontSize=11;fontStyle=5" vertex="1" parent="zd-B0QqsPqcbFtm1YSPT-83">
          <mxGeometry x="48" width="141" height="46" as="geometry">
            <mxRectangle width="141" height="46" as="alternateBounds" />
          </mxGeometry>
        </mxCell>
        <mxCell id="zd-B0QqsPqcbFtm1YSPT-86" value="FK" style="shape=partialRectangle;connectable=0;fillColor=none;top=0;left=0;bottom=0;right=0;align=left;spacingLeft=2;overflow=hidden;fontSize=11;fontStyle=1" vertex="1" parent="zd-B0QqsPqcbFtm1YSPT-83">
          <mxGeometry x="189" width="62" height="46" as="geometry">
            <mxRectangle width="62" height="46" as="alternateBounds" />
          </mxGeometry>
        </mxCell>
        <mxCell id="zd-B0QqsPqcbFtm1YSPT-87" style="shape=tableRow;horizontal=0;startSize=0;swimlaneHead=0;swimlaneBody=0;fillColor=none;collapsible=0;dropTarget=0;points=[[0,0.5],[1,0.5]];portConstraint=eastwest;top=0;left=0;right=0;bottom=0;" vertex="1" parent="zd-B0QqsPqcbFtm1YSPT-74">
          <mxGeometry y="163" width="251" height="46" as="geometry" />
        </mxCell>
        <mxCell id="zd-B0QqsPqcbFtm1YSPT-88" value="DATETIME" style="shape=partialRectangle;connectable=0;fillColor=none;top=0;left=0;bottom=0;right=0;align=left;spacingLeft=2;overflow=hidden;fontSize=11;" vertex="1" parent="zd-B0QqsPqcbFtm1YSPT-87">
          <mxGeometry width="48" height="46" as="geometry">
            <mxRectangle width="48" height="46" as="alternateBounds" />
          </mxGeometry>
        </mxCell>
        <mxCell id="zd-B0QqsPqcbFtm1YSPT-89" value="BookingDate" style="shape=partialRectangle;connectable=0;fillColor=none;top=0;left=0;bottom=0;right=0;align=left;spacingLeft=2;overflow=hidden;fontSize=11;" vertex="1" parent="zd-B0QqsPqcbFtm1YSPT-87">
          <mxGeometry x="48" width="141" height="46" as="geometry">
            <mxRectangle width="141" height="46" as="alternateBounds" />
          </mxGeometry>
        </mxCell>
        <mxCell id="zd-B0QqsPqcbFtm1YSPT-90" value="" style="shape=partialRectangle;connectable=0;fillColor=none;top=0;left=0;bottom=0;right=0;align=left;spacingLeft=2;overflow=hidden;fontSize=11;" vertex="1" parent="zd-B0QqsPqcbFtm1YSPT-87">
          <mxGeometry x="189" width="62" height="46" as="geometry">
            <mxRectangle width="62" height="46" as="alternateBounds" />
          </mxGeometry>
        </mxCell>
        <mxCell id="zd-B0QqsPqcbFtm1YSPT-91" style="shape=tableRow;horizontal=0;startSize=0;swimlaneHead=0;swimlaneBody=0;fillColor=none;collapsible=0;dropTarget=0;points=[[0,0.5],[1,0.5]];portConstraint=eastwest;top=0;left=0;right=0;bottom=0;" vertex="1" parent="zd-B0QqsPqcbFtm1YSPT-74">
          <mxGeometry y="209" width="251" height="46" as="geometry" />
        </mxCell>
        <mxCell id="zd-B0QqsPqcbFtm1YSPT-92" value="BIT" style="shape=partialRectangle;connectable=0;fillColor=none;top=0;left=0;bottom=0;right=0;align=left;spacingLeft=2;overflow=hidden;fontSize=11;" vertex="1" parent="zd-B0QqsPqcbFtm1YSPT-91">
          <mxGeometry width="48" height="46" as="geometry">
            <mxRectangle width="48" height="46" as="alternateBounds" />
          </mxGeometry>
        </mxCell>
        <mxCell id="zd-B0QqsPqcbFtm1YSPT-93" value="Status" style="shape=partialRectangle;connectable=0;fillColor=none;top=0;left=0;bottom=0;right=0;align=left;spacingLeft=2;overflow=hidden;fontSize=11;" vertex="1" parent="zd-B0QqsPqcbFtm1YSPT-91">
          <mxGeometry x="48" width="141" height="46" as="geometry">
            <mxRectangle width="141" height="46" as="alternateBounds" />
          </mxGeometry>
        </mxCell>
        <mxCell id="zd-B0QqsPqcbFtm1YSPT-94" value="" style="shape=partialRectangle;connectable=0;fillColor=none;top=0;left=0;bottom=0;right=0;align=left;spacingLeft=2;overflow=hidden;fontSize=11;" vertex="1" parent="zd-B0QqsPqcbFtm1YSPT-91">
          <mxGeometry x="189" width="62" height="46" as="geometry">
            <mxRectangle width="62" height="46" as="alternateBounds" />
          </mxGeometry>
        </mxCell>
        <mxCell id="zd-B0QqsPqcbFtm1YSPT-95" value="ServiceAudit" style="shape=table;startSize=25;container=1;collapsible=0;childLayout=tableLayout;fixedRows=1;rowLines=1;fontStyle=1;align=center;resizeLast=1;" vertex="1" parent="1">
          <mxGeometry x="866" y="822" width="248" height="301" as="geometry" />
        </mxCell>
        <mxCell id="zd-B0QqsPqcbFtm1YSPT-96" style="shape=tableRow;horizontal=0;startSize=0;swimlaneHead=0;swimlaneBody=0;fillColor=none;collapsible=0;dropTarget=0;points=[[0,0.5],[1,0.5]];portConstraint=eastwest;top=0;left=0;right=0;bottom=0;" vertex="1" parent="zd-B0QqsPqcbFtm1YSPT-95">
          <mxGeometry y="25" width="248" height="46" as="geometry" />
        </mxCell>
        <mxCell id="zd-B0QqsPqcbFtm1YSPT-97" value="INT" style="shape=partialRectangle;connectable=0;fillColor=none;top=0;left=0;bottom=0;right=0;align=left;spacingLeft=2;overflow=hidden;fontSize=11;fontStyle=1" vertex="1" parent="zd-B0QqsPqcbFtm1YSPT-96">
          <mxGeometry width="48" height="46" as="geometry">
            <mxRectangle width="48" height="46" as="alternateBounds" />
          </mxGeometry>
        </mxCell>
        <mxCell id="zd-B0QqsPqcbFtm1YSPT-98" value="AuditID" style="shape=partialRectangle;connectable=0;fillColor=none;top=0;left=0;bottom=0;right=0;align=left;spacingLeft=2;overflow=hidden;fontSize=11;fontStyle=1" vertex="1" parent="zd-B0QqsPqcbFtm1YSPT-96">
          <mxGeometry x="48" width="156.00000000000023" height="46" as="geometry">
            <mxRectangle width="156.00000000000023" height="46" as="alternateBounds" />
          </mxGeometry>
        </mxCell>
        <mxCell id="zd-B0QqsPqcbFtm1YSPT-99" value="PK" style="shape=partialRectangle;connectable=0;fillColor=none;top=0;left=0;bottom=0;right=0;align=left;spacingLeft=2;overflow=hidden;fontSize=11;fontStyle=1" vertex="1" parent="zd-B0QqsPqcbFtm1YSPT-96">
          <mxGeometry x="204.00000000000023" width="43.99999999999977" height="46" as="geometry">
            <mxRectangle width="43.99999999999977" height="46" as="alternateBounds" />
          </mxGeometry>
        </mxCell>
        <mxCell id="zd-B0QqsPqcbFtm1YSPT-100" style="shape=tableRow;horizontal=0;startSize=0;swimlaneHead=0;swimlaneBody=0;fillColor=none;collapsible=0;dropTarget=0;points=[[0,0.5],[1,0.5]];portConstraint=eastwest;top=0;left=0;right=0;bottom=0;" vertex="1" parent="zd-B0QqsPqcbFtm1YSPT-95">
          <mxGeometry y="71" width="248" height="46" as="geometry" />
        </mxCell>
        <mxCell id="zd-B0QqsPqcbFtm1YSPT-101" value="INT" style="shape=partialRectangle;connectable=0;fillColor=none;top=0;left=0;bottom=0;right=0;align=left;spacingLeft=2;overflow=hidden;fontSize=11;fontStyle=1" vertex="1" parent="zd-B0QqsPqcbFtm1YSPT-100">
          <mxGeometry width="48" height="46" as="geometry">
            <mxRectangle width="48" height="46" as="alternateBounds" />
          </mxGeometry>
        </mxCell>
        <mxCell id="zd-B0QqsPqcbFtm1YSPT-102" value="ServiceID" style="shape=partialRectangle;connectable=0;fillColor=none;top=0;left=0;bottom=0;right=0;align=left;spacingLeft=2;overflow=hidden;fontSize=11;fontStyle=5" vertex="1" parent="zd-B0QqsPqcbFtm1YSPT-100">
          <mxGeometry x="48" width="156.00000000000023" height="46" as="geometry">
            <mxRectangle width="156.00000000000023" height="46" as="alternateBounds" />
          </mxGeometry>
        </mxCell>
        <mxCell id="zd-B0QqsPqcbFtm1YSPT-103" value="FK" style="shape=partialRectangle;connectable=0;fillColor=none;top=0;left=0;bottom=0;right=0;align=left;spacingLeft=2;overflow=hidden;fontSize=11;fontStyle=5" vertex="1" parent="zd-B0QqsPqcbFtm1YSPT-100">
          <mxGeometry x="204.00000000000023" width="43.99999999999977" height="46" as="geometry">
            <mxRectangle width="43.99999999999977" height="46" as="alternateBounds" />
          </mxGeometry>
        </mxCell>
        <mxCell id="zd-B0QqsPqcbFtm1YSPT-104" style="shape=tableRow;horizontal=0;startSize=0;swimlaneHead=0;swimlaneBody=0;fillColor=none;collapsible=0;dropTarget=0;points=[[0,0.5],[1,0.5]];portConstraint=eastwest;top=0;left=0;right=0;bottom=0;" vertex="1" parent="zd-B0QqsPqcbFtm1YSPT-95">
          <mxGeometry y="117" width="248" height="46" as="geometry" />
        </mxCell>
        <mxCell id="zd-B0QqsPqcbFtm1YSPT-105" value="NVARCHAR" style="shape=partialRectangle;connectable=0;fillColor=none;top=0;left=0;bottom=0;right=0;align=left;spacingLeft=2;overflow=hidden;fontSize=11;" vertex="1" parent="zd-B0QqsPqcbFtm1YSPT-104">
          <mxGeometry width="48" height="46" as="geometry">
            <mxRectangle width="48" height="46" as="alternateBounds" />
          </mxGeometry>
        </mxCell>
        <mxCell id="zd-B0QqsPqcbFtm1YSPT-106" value="ActionType" style="shape=partialRectangle;connectable=0;fillColor=none;top=0;left=0;bottom=0;right=0;align=left;spacingLeft=2;overflow=hidden;fontSize=11;" vertex="1" parent="zd-B0QqsPqcbFtm1YSPT-104">
          <mxGeometry x="48" width="156.00000000000023" height="46" as="geometry">
            <mxRectangle width="156.00000000000023" height="46" as="alternateBounds" />
          </mxGeometry>
        </mxCell>
        <mxCell id="zd-B0QqsPqcbFtm1YSPT-107" value="" style="shape=partialRectangle;connectable=0;fillColor=none;top=0;left=0;bottom=0;right=0;align=left;spacingLeft=2;overflow=hidden;fontSize=11;" vertex="1" parent="zd-B0QqsPqcbFtm1YSPT-104">
          <mxGeometry x="204.00000000000023" width="43.99999999999977" height="46" as="geometry">
            <mxRectangle width="43.99999999999977" height="46" as="alternateBounds" />
          </mxGeometry>
        </mxCell>
        <mxCell id="zd-B0QqsPqcbFtm1YSPT-108" style="shape=tableRow;horizontal=0;startSize=0;swimlaneHead=0;swimlaneBody=0;fillColor=none;collapsible=0;dropTarget=0;points=[[0,0.5],[1,0.5]];portConstraint=eastwest;top=0;left=0;right=0;bottom=0;" vertex="1" parent="zd-B0QqsPqcbFtm1YSPT-95">
          <mxGeometry y="163" width="248" height="46" as="geometry" />
        </mxCell>
        <mxCell id="zd-B0QqsPqcbFtm1YSPT-109" value="DATETIME" style="shape=partialRectangle;connectable=0;fillColor=none;top=0;left=0;bottom=0;right=0;align=left;spacingLeft=2;overflow=hidden;fontSize=11;" vertex="1" parent="zd-B0QqsPqcbFtm1YSPT-108">
          <mxGeometry width="48" height="46" as="geometry">
            <mxRectangle width="48" height="46" as="alternateBounds" />
          </mxGeometry>
        </mxCell>
        <mxCell id="zd-B0QqsPqcbFtm1YSPT-110" value="ActionDate" style="shape=partialRectangle;connectable=0;fillColor=none;top=0;left=0;bottom=0;right=0;align=left;spacingLeft=2;overflow=hidden;fontSize=11;" vertex="1" parent="zd-B0QqsPqcbFtm1YSPT-108">
          <mxGeometry x="48" width="156.00000000000023" height="46" as="geometry">
            <mxRectangle width="156.00000000000023" height="46" as="alternateBounds" />
          </mxGeometry>
        </mxCell>
        <mxCell id="zd-B0QqsPqcbFtm1YSPT-111" value="" style="shape=partialRectangle;connectable=0;fillColor=none;top=0;left=0;bottom=0;right=0;align=left;spacingLeft=2;overflow=hidden;fontSize=11;" vertex="1" parent="zd-B0QqsPqcbFtm1YSPT-108">
          <mxGeometry x="204.00000000000023" width="43.99999999999977" height="46" as="geometry">
            <mxRectangle width="43.99999999999977" height="46" as="alternateBounds" />
          </mxGeometry>
        </mxCell>
        <mxCell id="zd-B0QqsPqcbFtm1YSPT-112" style="shape=tableRow;horizontal=0;startSize=0;swimlaneHead=0;swimlaneBody=0;fillColor=none;collapsible=0;dropTarget=0;points=[[0,0.5],[1,0.5]];portConstraint=eastwest;top=0;left=0;right=0;bottom=0;" vertex="1" parent="zd-B0QqsPqcbFtm1YSPT-95">
          <mxGeometry y="209" width="248" height="46" as="geometry" />
        </mxCell>
        <mxCell id="zd-B0QqsPqcbFtm1YSPT-113" value="NVARCHAR" style="shape=partialRectangle;connectable=0;fillColor=none;top=0;left=0;bottom=0;right=0;align=left;spacingLeft=2;overflow=hidden;fontSize=11;" vertex="1" parent="zd-B0QqsPqcbFtm1YSPT-112">
          <mxGeometry width="48" height="46" as="geometry">
            <mxRectangle width="48" height="46" as="alternateBounds" />
          </mxGeometry>
        </mxCell>
        <mxCell id="zd-B0QqsPqcbFtm1YSPT-114" value="OldData" style="shape=partialRectangle;connectable=0;fillColor=none;top=0;left=0;bottom=0;right=0;align=left;spacingLeft=2;overflow=hidden;fontSize=11;" vertex="1" parent="zd-B0QqsPqcbFtm1YSPT-112">
          <mxGeometry x="48" width="156.00000000000023" height="46" as="geometry">
            <mxRectangle width="156.00000000000023" height="46" as="alternateBounds" />
          </mxGeometry>
        </mxCell>
        <mxCell id="zd-B0QqsPqcbFtm1YSPT-115" value="" style="shape=partialRectangle;connectable=0;fillColor=none;top=0;left=0;bottom=0;right=0;align=left;spacingLeft=2;overflow=hidden;fontSize=11;" vertex="1" parent="zd-B0QqsPqcbFtm1YSPT-112">
          <mxGeometry x="204.00000000000023" width="43.99999999999977" height="46" as="geometry">
            <mxRectangle width="43.99999999999977" height="46" as="alternateBounds" />
          </mxGeometry>
        </mxCell>
        <mxCell id="zd-B0QqsPqcbFtm1YSPT-116" style="shape=tableRow;horizontal=0;startSize=0;swimlaneHead=0;swimlaneBody=0;fillColor=none;collapsible=0;dropTarget=0;points=[[0,0.5],[1,0.5]];portConstraint=eastwest;top=0;left=0;right=0;bottom=0;" vertex="1" parent="zd-B0QqsPqcbFtm1YSPT-95">
          <mxGeometry y="255" width="248" height="46" as="geometry" />
        </mxCell>
        <mxCell id="zd-B0QqsPqcbFtm1YSPT-117" value="NVARCHAR" style="shape=partialRectangle;connectable=0;fillColor=none;top=0;left=0;bottom=0;right=0;align=left;spacingLeft=2;overflow=hidden;fontSize=11;" vertex="1" parent="zd-B0QqsPqcbFtm1YSPT-116">
          <mxGeometry width="48" height="46" as="geometry">
            <mxRectangle width="48" height="46" as="alternateBounds" />
          </mxGeometry>
        </mxCell>
        <mxCell id="zd-B0QqsPqcbFtm1YSPT-118" value="NewData" style="shape=partialRectangle;connectable=0;fillColor=none;top=0;left=0;bottom=0;right=0;align=left;spacingLeft=2;overflow=hidden;fontSize=11;" vertex="1" parent="zd-B0QqsPqcbFtm1YSPT-116">
          <mxGeometry x="48" width="156.00000000000023" height="46" as="geometry">
            <mxRectangle width="156.00000000000023" height="46" as="alternateBounds" />
          </mxGeometry>
        </mxCell>
        <mxCell id="zd-B0QqsPqcbFtm1YSPT-119" value="" style="shape=partialRectangle;connectable=0;fillColor=none;top=0;left=0;bottom=0;right=0;align=left;spacingLeft=2;overflow=hidden;fontSize=11;" vertex="1" parent="zd-B0QqsPqcbFtm1YSPT-116">
          <mxGeometry x="204.00000000000023" width="43.99999999999977" height="46" as="geometry">
            <mxRectangle width="43.99999999999977" height="46" as="alternateBounds" />
          </mxGeometry>
        </mxCell>
        <mxCell id="zd-B0QqsPqcbFtm1YSPT-120" value="is_a" style="curved=1;startArrow=ERmandOne;startSize=10;;endArrow=ERmandOne;endSize=10;;exitX=0.35;exitY=1;entryX=0.98;entryY=0;rounded=0;" edge="1" parent="1" target="zd-B0QqsPqcbFtm1YSPT-1">
          <mxGeometry relative="1" as="geometry">
            <Array as="points">
              <mxPoint x="312" y="771" />
            </Array>
            <mxPoint x="413.8000000000002" y="505" as="sourcePoint" />
          </mxGeometry>
        </mxCell>
        <mxCell id="zd-B0QqsPqcbFtm1YSPT-121" value="is_a" style="curved=1;startArrow=ERmandOne;startSize=10;;endArrow=ERmandOne;endSize=10;;exitX=0;exitY=0.77;entryX=0.67;entryY=0;rounded=0;" edge="1" parent="1" target="zd-B0QqsPqcbFtm1YSPT-1">
          <mxGeometry relative="1" as="geometry">
            <Array as="points">
              <mxPoint x="217" y="155" />
              <mxPoint x="217" y="771" />
            </Array>
            <mxPoint x="451" y="84.68000000000006" as="sourcePoint" />
          </mxGeometry>
        </mxCell>
        <mxCell id="zd-B0QqsPqcbFtm1YSPT-123" value="offers" style="curved=1;startArrow=ERmandOne;startSize=10;;endArrow=ERzeroToMany;endSize=10;;exitX=1;exitY=0.73;entryX=0.65;entryY=0;rounded=0;" edge="1" parent="1" target="zd-B0QqsPqcbFtm1YSPT-29">
          <mxGeometry relative="1" as="geometry">
            <Array as="points">
              <mxPoint x="894" y="155" />
            </Array>
            <mxPoint x="602" y="81.31999999999994" as="sourcePoint" />
          </mxGeometry>
        </mxCell>
        <mxCell id="zd-B0QqsPqcbFtm1YSPT-124" value="makes" style="curved=1;startArrow=ERmandOne;startSize=10;;endArrow=ERzeroToMany;endSize=10;;exitX=0.79;exitY=1;entryX=0.78;entryY=0;rounded=0;" edge="1" parent="1" target="zd-B0QqsPqcbFtm1YSPT-74">
          <mxGeometry relative="1" as="geometry">
            <Array as="points">
              <mxPoint x="656" y="771" />
            </Array>
            <mxPoint x="461.32000000000016" y="505" as="sourcePoint" />
          </mxGeometry>
        </mxCell>
        <mxCell id="zd-B0QqsPqcbFtm1YSPT-125" value="is booked in" style="curved=1;startArrow=ERmandOne;startSize=10;;endArrow=ERzeroToMany;endSize=10;;exitX=0;exitY=0.7;entryX=0.11;entryY=0;rounded=0;" edge="1" parent="1" source="zd-B0QqsPqcbFtm1YSPT-29" target="zd-B0QqsPqcbFtm1YSPT-74">
          <mxGeometry relative="1" as="geometry">
            <Array as="points">
              <mxPoint x="394" y="771" />
            </Array>
          </mxGeometry>
        </mxCell>
        <mxCell id="zd-B0QqsPqcbFtm1YSPT-126" value="has audit logs" style="curved=1;startArrow=ERmandOne;startSize=10;;endArrow=ERzeroToMany;endSize=10;;exitX=0.92;exitY=1;entryX=0.5;entryY=0;rounded=0;" edge="1" parent="1" source="zd-B0QqsPqcbFtm1YSPT-29" target="zd-B0QqsPqcbFtm1YSPT-95">
          <mxGeometry relative="1" as="geometry">
            <Array as="points">
              <mxPoint x="990" y="771" />
            </Array>
          </mxGeometry>
        </mxCell>
        <mxCell id="zd-B0QqsPqcbFtm1YSPT-127" value="Total Participation" style="curved=1;dashed=1;startArrow=ERoneToMany;startSize=10;;endArrow=ERmandOne;endSize=10;;exitX=0;exitY=0.22;entryX=0.45;entryY=1;rounded=0;" edge="1" parent="1" source="zd-B0QqsPqcbFtm1YSPT-29">
          <mxGeometry relative="1" as="geometry">
            <Array as="points">
              <mxPoint x="510" y="155" />
            </Array>
            <mxPoint x="518.9499999999998" y="104" as="targetPoint" />
          </mxGeometry>
        </mxCell>
        <mxCell id="zd-B0QqsPqcbFtm1YSPT-128" value="Optional Participation" style="curved=1;startArrow=ERzeroToMany;startSize=10;;endArrow=ERmandOne;endSize=10;;exitX=0.04;exitY=0;entryX=0.5;entryY=1;rounded=0;" edge="1" parent="1" source="zd-B0QqsPqcbFtm1YSPT-95" target="zd-B0QqsPqcbFtm1YSPT-29">
          <mxGeometry relative="1" as="geometry">
            <Array as="points">
              <mxPoint x="838" y="771" />
            </Array>
          </mxGeometry>
        </mxCell>
        <mxCell id="zd-B0QqsPqcbFtm1YSPT-129" value="" style="ellipse;whiteSpace=wrap;html=1;aspect=fixed;" vertex="1" parent="1">
          <mxGeometry x="380" y="385" width="120" height="120" as="geometry" />
        </mxCell>
        <mxCell id="zd-B0QqsPqcbFtm1YSPT-130" value="&lt;b&gt;Customer&lt;/b&gt;" style="text;html=1;align=center;verticalAlign=middle;whiteSpace=wrap;rounded=0;" vertex="1" parent="1">
          <mxGeometry x="410" y="430" width="60" height="30" as="geometry" />
        </mxCell>
        <mxCell id="zd-B0QqsPqcbFtm1YSPT-131" value="" style="ellipse;whiteSpace=wrap;html=1;aspect=fixed;" vertex="1" parent="1">
          <mxGeometry x="450" y="-10" width="150" height="150" as="geometry" />
        </mxCell>
        <mxCell id="zd-B0QqsPqcbFtm1YSPT-132" value="&lt;b&gt;Service Provider&lt;/b&gt;" style="text;html=1;align=center;verticalAlign=middle;whiteSpace=wrap;rounded=0;" vertex="1" parent="1">
          <mxGeometry x="455" y="40" width="140" height="30" as="geometry" />
        </mxCell>
      </root>
    </mxGraphModel>
  </diagram>
</mxfile>
